<svg width="34" height="44" viewBox="0 0 34 44" fill="none" xmlns="http://www.w3.org/2000/svg">
<path d="M5.90036 4.27243C10.3863 0.332573 17.084 -0.607464 22.5998 1.54218C30.5003 4.37611 35.0691 13.7557 32.878 21.7668C31.9172 25.0984 30.051 28.0567 28.2608 30.9943C26.6295 28.188 24.3278 25.8587 21.487 24.2758C23.7887 21.8635 25.3439 18.2624 23.761 15.0414C21.8671 9.95411 14.4021 8.46111 10.8701 12.6913C7.55233 15.9537 8.51311 21.2898 11.5751 24.3657C8.7412 25.7412 6.57774 28.0844 5.25063 30.9252C2.09875 27.0061 -0.424145 22.1815 0.0596964 16.9975C-0.202961 12.1038 2.30611 7.45887 5.90036 4.27243Z" fill="#515DEF"/>
<path d="M11.4097 38.6181C12.4396 33.8903 13.0962 29.0933 14.057 24.3517C15.6882 24.3586 17.3125 24.3586 18.9438 24.3586C19.946 29.0657 20.6649 33.8281 21.6187 38.549C19.9598 40.0627 18.6396 42.3437 16.5177 43.1109C14.4302 42.3022 13.0962 40.0765 11.4097 38.6181Z" fill="#515DEF"/>
</svg>
